Coordinates
version=1
nRows=8
nColumns=36
inDegrees=yes

Units are S.I. units (second, meters, Newtons, ...)
If the header above contains a line with 'inDegrees', this indicates whether rotational values are in degrees (yes) or radians (no).

endheader
time	pelvis_tilt	pelvis_list	pelvis_rotation	pelvis_tx	pelvis_ty	pelvis_tz	hip_flexion_r	hip_adduction_r	hip_rotation_r	knee_angle_r	knee_angle_r_beta	ankle_angle_r	subtalar_angle_r	mtp_angle_r	hip_flexion_l	hip_adduction_l	hip_rotation_l	knee_angle_l	knee_angle_l_beta	ankle_angle_l	subtalar_angle_l	mtp_angle_l	lumbar_extension	lumbar_bending	lumbar_rotation	arm_flex_r	arm_add_r	arm_rot_r	elbow_flex_r	pro_sup_r	arm_flex_l	arm_add_l	arm_rot_l	elbow_flex_l	pro_sup_l
      1.86666670	     -3.51449975	     -0.93558739	     -0.27105852	      0.37153286	      0.93243107	     -0.04955551	      2.63568167	     -4.47701319	      2.17556786	      3.39932537	      0.05932942	      2.57373249	     -8.39534042	     -7.49999987	     -0.05865639	     -4.32095297	     -3.78975576	      0.69851283	      0.01219135	      3.04456195	     -5.01111559	     -7.49999987	     -2.53709643	     -6.57457713	    -14.11939924	    130.76947604	    -20.32743314	     42.23186194	     27.14425835	     73.36113161	     15.77981932	    -14.38672450	    -11.30501403	     31.54838637	     62.79519886
      1.88333330	     -3.59632773	     -0.91076529	     -0.29808693	      0.37150055	      0.93499902	     -0.04982949	      2.63360480	     -4.45963747	      2.10157857	      3.35170037	      0.05849821	      2.58219001	     -8.17966055	     -7.49999987	     -0.04045744	     -4.34354403	     -3.90761396	      0.69646419	      0.01215559	      3.02384259	     -4.92420419	     -7.49999987	     -2.36206853	     -6.75325144	    -14.36938188	    130.86472862	    -20.53444653	     41.66498087	     28.43169893	     73.26548148	     15.56793737	    -14.62748376	    -11.13693490	     31.32464078	     63.12642213
      1.90000000	     -3.71764449	     -0.89002832	     -0.35118998	      0.37163216	      0.93479187	     -0.04985649	      2.70415715	     -4.45820660	      2.13015756	      3.28758111	      0.05737911	      2.58784453	     -8.06347575	     -7.49999987	      0.02498771	     -4.34598638	     -4.02138907	      0.69048453	      0.01205123	      3.03771929	     -4.84313389	     -7.49999987	     -2.02685745	     -6.95958803	    -14.77142040	    130.26352270	    -20.49246415	     36.88305647	     30.83272516	     79.69153369	     15.18549461	    -14.78667039	    -11.82192866	     31.11353259	     64.76477194
      1.91666670	     -3.83549831	     -0.86497512	     -0.38787956	      0.37161499	      0.93128746	     -0.05005458	      2.79526553	     -4.46443257	      2.16700189	      3.25466461	      0.05680461	      2.59123194	     -7.98639182	     -7.49999987	      0.12306573	     -4.31140173	     -3.96114856	      0.69046425	      0.01205087	      3.09785652	     -4.91881025	     -7.49999987	     -1.75233318	     -7.00447296	    -15.02681378	    130.90449467	    -20.57935596	     37.67972083	     31.08363663	     75.94239253	     15.07816710	    -14.99814678	    -11.07766528	     31.16038029	     63.65910444
      1.93333330	     -3.92132276	     -0.84353361	     -0.42609748	      0.37173592	      0.93145686	     -0.05015387	      2.88846785	     -4.48822659	      2.16455670	      3.23369713	      0.05643866	      2.58899421	     -7.93038773	     -7.49999987	      0.18427583	     -4.27831170	     -4.10047839	      0.66065461	      0.01153060	      3.18480089	     -4.69934179	     -7.49999987	     -1.63166476	     -7.10697287	    -14.65395586	    132.20431441	    -21.63716239	     39.38559707	     31.39892937	     77.14115732	     15.57175778	    -14.94581554	     -9.96572565	     30.75734790	     63.97107313
      1.95000000	     -4.03413359	     -0.81049840	     -0.43793382	      0.37174106	      0.93097280	     -0.05016571	      3.00615924	     -4.50841624	      2.23314359	      3.24601529	      0.05665365	      2.64541149	     -7.98361991	     -7.49999987	      0.28248151	     -4.24109079	     -4.16403353	      0.64647000	      0.01128303	      3.34646088	     -4.54641062	     -7.49999987	     -1.47243766	     -7.20559077	    -14.45868287	    133.25735102	    -22.52883395	     40.39696207	     31.82813944	     76.85097881	     16.06678844	    -15.23270539	     -8.57402863	     30.32154396	     63.91433666
      1.96666670	     -4.18118635	     -0.78109539	     -0.41061752	      0.37188223	      0.93117442	     -0.05027306	      3.14720159	     -4.52511241	      2.25771362	      3.24413154	      0.05662078	      2.71830030	     -8.05651660	     -7.49999987	      0.43426297	     -4.19995696	     -4.13301069	      0.64694450	      0.01129131	      3.45104947	     -4.58724177	     -7.49999987	     -1.33684024	     -7.30815981	    -14.27329197	    134.31046710	    -23.27435862	     40.86315911	     31.38643843	     78.22562965	     16.45923115	    -15.42579991	     -7.63087988	     30.00851294	     63.97050135
      1.98333330	     -4.36785473	     -0.74006403	     -0.37283655	      0.36760025	      0.93061481	     -0.05451411	      3.48628991	     -4.62694735	      2.24057671	      3.43028386	      0.05986975	      2.79515329	     -8.20180341	     -7.49999987	      0.69618414	     -4.10760795	     -4.14760700	      0.64643229	      0.01128237	      3.64709889	     -4.52858058	     -7.49999987	     -1.33801325	     -7.29004598	    -14.16168346	    135.87184706	    -23.67661355	     42.32176229	     30.11647047	     79.73101441	     17.28284362	    -15.60136837	     -5.76208521	     29.46604452	     64.47344914
